<?xml version="1.0" standalone="no"?>
<!DOCTYPE svg PUBLIC "-//W3C//DTD SVG 20010904//EN"
 "http://www.w3.org/TR/2001/REC-SVG-20010904/DTD/svg10.dtd">
<svg version="1.0" xmlns="http://www.w3.org/2000/svg"
 width="640.000000pt" height="480.000000pt" viewBox="0 0 640.000000 480.000000"
 preserveAspectRatio="xMidYMid meet">
<metadata>
Created by potrace 1.16, written by Peter Selinger 2001-2019
</metadata>
<g transform="translate(0.000000,480.000000) scale(0.100000,-0.100000)"
fill="#000000" stroke="none">
<path d="M2 4745 c2 -48 5 -54 20 -49 12 3 18 0 18 -9 0 -8 7 -17 15 -21 23
-8 18 -29 -5 -23 -13 3 -20 0 -20 -9 0 -8 10 -14 25 -14 14 0 25 -4 25 -10 0
-5 -9 -10 -19 -10 -11 0 -23 -4 -26 -10 -3 -5 1 -10 9 -10 29 0 17 -17 -16
-24 -26 -5 -30 -9 -18 -16 10 -6 11 -10 3 -10 -8 0 -13 -13 -13 -30 0 -26 4
-30 26 -30 14 0 23 -4 19 -10 -3 -5 3 -18 13 -28 10 -10 16 -24 14 -30 -2 -7
4 -12 13 -12 11 0 15 5 12 14 -4 11 10 14 73 15 68 1 78 -1 76 -16 -1 -13 6
-18 26 -18 14 0 29 -3 33 -7 4 -4 -27 -6 -70 -6 -42 1 -80 -3 -86 -9 -6 -6 48
-9 150 -10 155 -1 198 -7 171 -23 -7 -4 -9 -13 -6 -19 9 -14 93 -15 101 -1 4
6 -8 10 -28 10 -22 0 -37 6 -41 16 -5 13 3 15 52 13 65 -3 124 -18 116 -31 -3
-4 -10 -6 -15 -2 -16 9 -61 -5 -53 -17 3 -6 15 -9 25 -6 25 7 57 -17 39 -28
-9 -5 -15 -4 -18 3 -2 7 -9 9 -15 5 -6 -4 -61 -8 -122 -9 -137 -3 -200 -14
-200 -34 0 -11 9 -14 30 -13 115 10 225 10 225 1 0 -7 4 -7 13 0 7 6 18 7 25
3 7 -4 55 -5 105 -2 117 6 206 5 215 -4 13 -12 -33 -29 -83 -30 -27 0 -56 -4
-63 -9 -8 -5 -18 -4 -25 3 -16 16 -30 13 -23 -5 6 -15 0 -16 -37 -11 -26 4
-48 2 -55 -5 -15 -15 -43 -2 -36 17 9 23 -10 18 -36 -10 -13 -14 -34 -25 -46
-25 -13 0 -25 -3 -28 -8 -2 -4 45 -6 106 -3 80 2 112 0 118 -9 6 -10 15 -10
43 -1 19 7 58 10 86 9 51 -3 51 -3 31 -20 -14 -12 -31 -15 -51 -11 -18 3 -29
1 -29 -6 0 -6 17 -11 39 -11 21 0 59 -3 85 -6 39 -6 46 -4 46 10 0 9 -7 19
-15 22 -28 11 -16 27 16 20 18 -3 37 -2 44 4 6 5 54 10 106 10 52 1 108 5 124
10 17 4 64 14 105 21 55 10 68 15 50 19 -28 7 -115 5 -177 -5 -39 -6 -65 6
-49 23 10 10 205 11 211 1 7 -10 45 -13 45 -3 0 3 -4 14 -10 24 -13 24 -107
38 -140 20 -12 -6 -24 -9 -27 -6 -3 3 5 10 19 15 24 9 54 38 47 46 -2 2 -30 5
-62 7 -31 1 -57 6 -57 10 0 8 8 9 107 12 29 0 52 5 50 11 -1 6 -12 9 -24 7
-25 -3 -30 7 -11 26 10 10 -6 12 -70 11 -45 -1 -85 -5 -87 -10 -3 -4 -12 -6
-20 -2 -8 3 -15 0 -15 -5 0 -6 -21 -14 -47 -17 -83 -11 -93 -14 -87 -30 5 -11
-1 -15 -21 -15 -18 0 -29 -6 -32 -20 -7 -27 -25 -25 -21 2 3 21 -1 22 -36 19
-26 -2 -36 1 -32 8 4 6 20 11 36 11 16 0 32 5 35 11 5 7 -3 10 -21 8 -16 -2
-107 0 -202 5 -146 7 -172 11 -168 23 3 8 6 19 6 24 0 5 6 9 14 9 8 0 13 -8
12 -17 -1 -16 8 -18 68 -16 48 2 74 7 87 19 17 15 37 16 177 10 87 -3 158 -11
160 -16 5 -13 29 -13 34 0 2 5 54 11 115 12 62 2 113 7 113 11 0 10 -26 51
-61 97 -14 19 -44 68 -65 108 -21 41 -53 88 -71 105 -18 17 -35 42 -38 54 l-5
23 -535 0 -535 0 2 -55z m635 -149 c-4 -10 2 -16 16 -18 12 -2 21 -9 19 -16
-1 -7 5 -15 13 -18 24 -10 17 -24 -12 -25 l-28 -1 25 -8 c34 -11 191 -11 165
0 -11 4 -47 16 -80 25 -50 15 -56 19 -39 26 12 4 25 12 29 18 3 6 13 11 22 11
13 0 13 -2 2 -16 -12 -15 -11 -16 9 -10 13 4 22 3 22 -3 0 -5 -8 -12 -17 -14
-17 -4 -17 -5 0 -6 9 0 25 8 34 19 17 20 43 27 43 13 0 -5 44 -8 98 -9 55 0
96 -4 95 -10 -1 -5 -13 -11 -25 -13 -19 -3 -16 -6 17 -16 22 -7 32 -13 22 -14
-10 -1 -25 -8 -33 -16 -9 -8 -33 -15 -55 -15 -21 0 -39 -4 -39 -10 0 -5 5 -10
11 -10 5 0 7 -4 4 -10 -3 -5 -17 -10 -30 -10 -13 0 -27 -4 -30 -10 -9 -15 -57
-12 -79 5 -27 20 -67 20 -60 0 7 -16 -12 -20 -41 -9 -12 5 -13 9 -5 14 16 10
-75 17 -98 8 -13 -5 -12 -7 8 -8 l25 -1 -23 -12 c-12 -7 -19 -16 -16 -20 4 -4
0 -7 -10 -7 -12 0 -16 7 -14 23 2 17 -2 23 -22 25 -20 2 -22 1 -10 -8 12 -9 4
-10 -34 -6 -27 3 -55 6 -63 6 -8 0 -11 5 -8 10 3 6 -3 10 -13 10 -11 0 -22 -6
-25 -14 -4 -9 -14 -12 -27 -9 -14 4 -28 -2 -41 -16 -11 -11 -18 -21 -17 -22 2
-1 20 -2 41 -3 26 -2 37 1 37 11 0 8 4 11 10 8 6 -4 5 -13 -3 -26 -9 -16 -19
-19 -46 -15 -32 5 -69 38 -50 44 5 2 9 10 9 17 0 15 42 28 64 19 9 -3 16 -1
16 5 0 6 -5 11 -11 11 -5 0 -7 5 -4 10 3 6 -1 10 -9 10 -10 0 -13 6 -10 15 10
24 -20 18 -46 -10 -28 -30 -44 -32 -35 -5 4 14 2 20 -8 20 -19 0 -50 36 -42
49 3 6 14 11 25 11 10 0 20 6 23 14 6 15 47 18 47 4 0 -12 34 -10 47 3 12 12
33 4 33 -12 0 -6 -8 -8 -19 -4 -18 5 -37 -16 -24 -28 9 -9 53 15 53 29 0 8 19
15 48 19 26 3 54 8 62 9 8 2 37 4 64 5 38 1 47 -2 43 -13z"/>
<path d="M1358 4792 c-1 -4 -19 -18 -38 -30 -19 -13 -26 -21 -15 -18 11 3 37
8 58 12 33 6 39 4 44 -15 3 -11 9 -21 14 -21 5 0 9 -9 9 -19 0 -29 12 -32 50
-13 44 20 48 27 42 60 -4 26 -4 26 12 7 21 -28 20 -42 -7 -60 -24 -15 -87 -96
-87 -112 0 -4 21 -8 47 -9 47 0 47 -1 55 -39 5 -21 13 -44 18 -50 5 -7 7 -15
3 -18 -3 -4 2 -9 11 -13 23 -9 20 -27 -10 -59 -38 -41 -21 -42 29 -1 24 20 48
36 53 36 26 1 35 17 23 43 -7 15 -16 27 -20 27 -9 0 -59 100 -59 118 0 7 4 12
8 12 9 0 62 -100 62 -117 0 -6 3 -13 8 -15 7 -3 42 -62 42 -70 0 -3 -20 -14
-44 -26 -46 -23 -53 -34 -62 -87 -4 -27 -1 -33 16 -38 11 -3 20 -12 20 -21 0
-9 4 -16 10 -16 22 0 60 -51 56 -76 -4 -21 -2 -23 20 -18 24 6 34 -9 14 -21
-5 -3 -10 -11 -10 -17 0 -7 6 -6 15 2 12 10 15 10 15 -4 0 -9 -4 -16 -9 -16
-5 0 -11 -9 -14 -20 -7 -26 -41 -26 -92 1 -22 12 -42 24 -45 28 -3 4 -18 15
-35 25 l-29 19 24 -30 c41 -51 91 -74 162 -74 91 -1 217 50 278 111 27 27 46
25 20 -2 -11 -12 -20 -30 -20 -40 0 -12 -5 -15 -17 -11 -11 4 -14 3 -9 -5 4
-8 -3 -16 -19 -22 l-26 -10 20 -29 c12 -16 21 -36 21 -43 0 -8 9 -23 20 -33
28 -26 25 -33 -20 -51 -47 -19 -54 -39 -10 -29 17 4 30 2 30 -3 0 -16 37 -52
54 -52 11 0 16 -9 16 -30 0 -16 -5 -30 -10 -30 -7 0 -7 -6 -1 -18 5 -10 9 -33
9 -50 -1 -42 7 -49 32 -27 17 15 24 16 46 6 l26 -11 -31 -32 c-28 -29 -30 -33
-14 -40 10 -3 12 -7 6 -7 -17 -1 -17 -31 0 -31 7 0 18 5 25 12 6 6 14 9 17 6
7 -7 -38 -36 -83 -54 -37 -13 -37 -14 -7 -12 58 2 62 -1 101 -82 21 -44 41
-80 45 -80 4 0 10 8 13 17 6 14 9 15 16 4 4 -8 6 -21 3 -29 -3 -8 0 -18 7 -22
11 -7 11 -14 2 -35 -11 -23 -9 -30 8 -52 27 -35 26 -49 -15 -108 -35 -50 -50
-102 -30 -106 12 -3 27 -37 46 -99 7 -25 17 -51 22 -57 5 -7 7 -21 5 -31 -4
-13 4 -25 24 -38 27 -17 74 -100 84 -148 5 -27 11 -31 51 -27 31 2 35 0 29
-15 -4 -9 -2 -21 5 -24 12 -8 79 9 79 19 0 3 -10 22 -22 41 -102 161 -166 270
-209 357 -42 86 -48 105 -39 123 11 20 13 17 38 -32 14 -29 38 -64 53 -78 22
-20 29 -38 35 -83 6 -54 8 -57 23 -42 26 23 31 18 19 -16 -6 -16 -8 -33 -4
-36 3 -4 6 -1 6 5 0 9 6 9 24 1 24 -11 36 -35 36 -72 0 -11 9 -30 20 -44 11
-14 20 -35 20 -45 0 -14 5 -18 16 -14 9 3 29 -3 45 -15 28 -19 29 -23 15 -38
-24 -27 -21 -116 4 -141 25 -25 72 -26 94 -1 18 19 7 39 -14 26 -6 -3 -19 -4
-29 0 -16 5 -17 9 -7 30 6 14 16 25 21 25 6 0 3 5 -5 11 -12 8 -10 9 8 4 19
-5 30 1 55 30 35 40 29 39 209 35 57 -1 96 -6 92 -11 -3 -5 -13 -8 -22 -7 -25
4 -39 -185 -16 -221 15 -21 21 -23 69 -18 65 7 95 -14 95 -68 0 -53 -33 -78
-92 -71 -59 8 -77 -8 -80 -72 -1 -26 -2 -56 -2 -67 -1 -18 -9 -20 -94 -23 -97
-3 -162 15 -162 44 0 20 -17 17 -29 -3 -5 -10 -13 -14 -17 -10 -4 4 2 21 15
37 l22 30 -23 1 c-22 1 -22 1 2 8 44 13 15 71 -36 71 -12 0 -34 -10 -49 -22
-24 -19 -27 -26 -22 -67 3 -25 1 -54 -4 -63 -10 -19 -39 -24 -54 -9 -6 5 -21
11 -35 13 -19 2 -25 -1 -25 -17 0 -23 -40 -36 -68 -22 -14 6 -20 4 -24 -11 -2
-11 -15 -24 -28 -30 -13 -6 -32 -23 -41 -37 -10 -15 -28 -31 -40 -35 -16 -6
-25 -21 -30 -46 -4 -24 -13 -38 -25 -41 -11 -3 -19 -11 -19 -18 0 -6 -13 -24
-30 -38 -20 -18 -27 -32 -23 -43 5 -14 2 -16 -15 -12 -15 4 -28 -4 -51 -33
-30 -37 -31 -39 -12 -49 12 -6 18 -16 15 -25 -8 -20 -1 -19 48 5 23 11 43 20
45 20 13 0 -12 -107 -29 -131 -21 -28 -26 -31 -58 -33 -11 -1 -15 -13 -15 -45
-1 -29 -6 -47 -18 -56 -9 -7 -17 -17 -17 -23 0 -7 -11 -14 -25 -18 -25 -6 -35
-24 -14 -24 8 0 8 -4 0 -14 -10 -12 -3 -20 36 -47 56 -38 163 -138 163 -151 0
-11 -38 11 -145 82 -38 25 -85 52 -104 58 -53 19 -154 15 -213 -8 -29 -11 -54
-20 -56 -20 -1 0 5 12 15 27 9 14 18 31 19 37 15 91 70 276 94 314 33 54 48
102 31 102 -6 0 -11 4 -11 9 0 5 7 8 16 7 18 -1 55 58 84 137 17 43 17 47 2
48 -13 0 -11 3 6 11 23 12 30 28 10 28 -24 0 5 15 32 16 30 2 31 1 31 -96 0
-48 -27 -130 -42 -130 -5 0 -9 -9 -9 -19 0 -11 -10 -27 -22 -35 -12 -9 -18
-16 -12 -16 6 0 27 14 45 30 19 17 48 40 66 52 17 12 38 34 47 49 15 25 59 81
105 134 41 47 170 152 212 174 21 10 25 19 24 47 -1 51 -20 58 -97 38 -10 -3
-15 -11 -11 -20 3 -8 -1 -14 -11 -14 -9 0 -15 3 -14 8 3 16 -15 42 -25 35 -6
-4 -8 0 -4 10 3 9 2 19 -3 22 -5 3 -10 -5 -12 -17 -2 -12 -14 -28 -26 -34 -27
-14 -21 -19 30 -29 26 -5 35 -11 31 -21 -4 -10 3 -14 20 -14 28 0 44 -15 27
-25 -6 -4 -7 -11 -4 -17 4 -6 1 -9 -7 -6 -8 3 -12 13 -11 23 3 16 1 17 -12 6
-9 -7 -13 -17 -10 -22 3 -5 0 -9 -5 -9 -6 0 -11 9 -11 21 0 21 -36 58 -56 59
-14 0 -26 28 -18 41 7 12 -153 0 -178 -12 -9 -5 -26 -9 -37 -9 -12 0 -21 -4
-21 -8 0 -5 -20 -9 -44 -10 -66 0 -86 -9 -86 -38 0 -18 5 -24 22 -24 27 0 21
-5 -16 -14 -28 -7 -29 -6 -23 27 3 20 1 39 -6 46 -8 8 -8 11 2 11 14 0 46 29
39 36 -7 7 -38 -7 -38 -17 0 -5 -4 -9 -10 -9 -5 0 -7 6 -4 14 7 18 -32 27 -62
14 -18 -9 -29 -7 -49 6 -14 9 -30 14 -35 11 -6 -4 -27 -1 -46 5 -29 10 -41 10
-61 -1 -20 -11 -28 -11 -44 0 -19 11 -20 10 -14 -8 7 -23 7 -23 -67 -25 -27 0
-48 -4 -48 -8 0 -5 0 -13 0 -19 0 -8 4 -8 14 0 11 9 38 10 110 2 52 -6 98 -11
102 -11 4 0 -4 -10 -17 -23 -15 -14 -33 -21 -47 -18 -12 2 -30 -3 -40 -11 -25
-22 -54 -30 -62 -18 -10 17 -62 23 -71 8 -6 -10 -11 -10 -20 -1 -10 10 -9 17
5 32 11 12 13 21 7 25 -12 8 -61 -3 -78 -16 -7 -6 -30 -7 -53 -3 -40 7 -50 -1
-28 -23 15 -15 3 -28 -14 -15 -7 6 -28 13 -47 17 -34 6 -34 6 -16 -14 10 -11
24 -20 32 -20 7 0 13 -4 13 -8 0 -11 -114 -2 -118 9 -2 5 -13 9 -24 9 -10 0
-26 7 -34 15 -16 15 -73 10 -85 -8 -4 -5 -13 -7 -20 -5 -18 6 -112 -21 -120
-34 -9 -14 -29 -1 -29 18 0 17 -17 19 -22 2 -3 -9 -6 -9 -12 0 -4 7 0 15 11
19 10 3 29 14 43 23 25 17 71 29 140 34 54 5 104 18 111 29 4 5 12 6 18 3 6
-4 9 -12 5 -17 -4 -7 9 -9 32 -7 35 3 39 6 39 31 1 15 -3 27 -7 27 -4 0 -8 -4
-8 -10 0 -5 -12 -10 -26 -10 -14 0 -23 4 -19 10 4 6 10 8 14 6 4 -3 8 9 8 25
0 21 -8 36 -24 46 -18 12 -21 18 -11 24 17 11 2 25 -34 34 -19 5 -28 3 -28 -5
0 -6 9 -14 20 -17 12 -3 19 -11 17 -17 -6 -17 -39 -20 -48 -4 -11 20 -69 21
-69 2 0 -11 -10 -13 -42 -9 l-43 5 34 -15 33 -16 -22 -24 c-19 -20 -25 -22
-41 -12 -11 7 -19 14 -19 17 0 3 -22 5 -48 5 -43 0 -48 -2 -45 -20 4 -18 3
-19 -7 -2 -8 13 -15 15 -30 7 -49 -26 -66 -1 -25 39 23 22 27 22 49 8 26 -17
66 -12 66 8 0 22 -24 32 -65 28 -67 -7 -128 -3 -142 9 -13 10 -28 5 -28 -10
-1 -4 -6 -17 -13 -29 -14 -25 -48 -32 -39 -8 9 21 -10 28 -22 8 -5 -10 -13
-14 -17 -10 -5 5 -3 12 4 16 19 12 -17 46 -51 48 -16 0 -35 9 -42 19 -12 16
-14 16 -15 3 0 -8 5 -20 11 -26 18 -18 -10 -27 -29 -10 -20 18 -71 11 -90 -12
-12 -14 -13 -14 -9 4 5 26 -18 51 -27 29 -3 -9 -1 -25 5 -36 6 -11 7 -23 3
-26 -4 -4 -9 -2 -11 4 -2 7 -17 9 -43 4 -22 -4 -43 -3 -49 3 -11 11 -34 0 -26
-13 10 -16 -17 -22 -32 -7 -18 17 -10 37 15 37 10 0 23 9 30 20 7 12 17 18 22
15 6 -3 10 -2 10 4 0 6 -20 10 -47 9 -60 -3 -87 -26 -73 -63 6 -16 6 -25 0
-25 -6 0 -10 -18 -10 -40 0 -30 3 -38 14 -34 23 9 28 -14 6 -29 -21 -14 -21
-22 -19 -308 1 -162 6 -299 11 -306 5 -7 5 -14 -1 -17 -13 -8 -14 -592 -1
-616 8 -16 15 -17 42 -9 37 10 200 11 238 0 24 -7 24 -7 5 -19 -18 -10 -18
-11 -2 -12 10 0 28 7 40 15 25 16 19 16 252 11 211 -5 207 -4 225 -16 12 -8
12 -11 -3 -28 -9 -10 -17 -21 -17 -24 0 -8 104 -19 218 -22 74 -2 95 0 99 11
4 9 8 11 12 5 9 -16 61 -26 61 -13 0 6 -9 11 -20 11 -11 0 -20 5 -20 10 0 6 4
10 8 10 5 0 19 9 32 20 23 20 72 26 105 14 14 -6 12 -11 -11 -35 -15 -16 -36
-29 -45 -29 -10 0 -24 -6 -31 -13 -19 -19 -87 -28 -111 -15 -17 9 -19 8 -14
-7 4 -9 7 -21 7 -26 0 -6 4 -8 9 -5 5 3 14 -1 21 -9 10 -12 -1 -14 -80 -11
-59 2 -87 0 -79 -6 11 -7 9 -8 -6 -6 -12 2 -21 12 -23 26 -2 12 -7 22 -12 22
-5 0 -7 -7 -4 -15 7 -18 -36 -21 -54 -3 -8 8 -15 8 -26 -1 -11 -9 -15 -9 -18
1 -4 10 -11 10 -34 -2 -16 -8 -32 -16 -36 -18 -5 -2 -8 3 -8 12 0 9 -5 16 -11
16 -6 0 -8 9 -4 20 4 11 2 20 -4 20 -6 0 -8 7 -5 15 4 10 0 15 -11 15 -12 0
-15 -5 -10 -20 4 -12 2 -27 -5 -35 -8 -10 -7 -16 6 -23 25 -14 0 -24 -31 -12
l-26 10 21 31 22 30 -22 21 c-15 14 -38 22 -69 23 -25 1 -54 5 -63 9 -26 12
-48 0 -48 -25 0 -18 -4 -20 -23 -14 -43 13 -62 12 -89 -6 -28 -20 -53 -25 -43
-9 3 6 -1 10 -10 10 -9 0 -13 -4 -10 -10 10 -16 -17 -12 -29 4 -14 19 -40 24
-41 9 0 -12 -7 -14 -30 -8 -51 15 -55 14 -55 -17 0 -17 -5 -28 -11 -26 -6 2
-10 7 -10 11 1 4 -6 22 -16 40 -9 17 -16 38 -15 45 5 22 -27 13 -58 -18 -27
-27 -30 -35 -30 -95 0 -39 4 -65 11 -65 5 0 8 4 5 9 -8 12 62 19 73 8 6 -6 21
-5 40 1 23 8 32 7 41 -3 7 -9 26 -12 53 -9 62 6 127 -6 127 -23 0 -8 8 -13 23
-11 22 3 27 -1 27 -25 0 -10 -10 -12 -37 -8 -34 6 -60 31 -31 31 10 0 9 3 -2
10 -19 12 -90 13 -90 1 0 -5 15 -11 33 -15 25 -5 29 -9 17 -16 -8 -6 -27 -7
-42 -4 -14 3 -29 0 -33 -5 -3 -6 -13 -11 -22 -11 -11 0 -8 6 11 21 14 11 26
23 26 27 0 4 -23 7 -50 8 -28 0 -50 -3 -50 -8 0 -4 9 -8 19 -8 11 0 23 -4 26
-10 3 -5 1 -10 -5 -10 -6 0 -8 -4 -5 -10 4 -6 -12 -10 -39 -10 -25 0 -46 3
-46 8 0 4 -18 6 -40 4 -41 -4 -59 -32 -21 -32 10 0 24 -7 31 -15 8 -9 21 -13
36 -9 15 4 24 2 24 -6 0 -6 12 -10 27 -9 49 4 83 -1 83 -11 0 -6 -37 -9 -92
-7 -67 2 -92 6 -91 15 4 17 -8 15 -23 -5 -7 -10 -14 -33 -14 -52 0 -26 3 -32
16 -27 9 3 22 6 30 6 11 0 13 6 9 20 -6 20 5 27 19 13 4 -5 11 -8 14 -9 4 0
15 -4 25 -8 9 -5 26 -6 37 -3 10 3 21 0 23 -7 3 -8 9 -7 20 3 10 8 24 10 34 6
10 -5 25 -9 33 -9 8 -1 16 -10 18 -20 3 -15 0 -18 -17 -13 -12 3 -21 1 -21 -4
0 -5 7 -9 15 -9 8 0 15 -4 15 -9 0 -17 -15 -20 -39 -7 -17 10 -34 11 -62 3
-41 -10 -129 -2 -129 12 0 5 -8 11 -18 13 -16 5 -19 -1 -21 -38 -1 -29 3 -44
11 -44 9 0 9 -3 0 -12 -8 -8 -12 -45 -12 -103 l0 -90 54 3 c40 3 55 0 59 -11
4 -10 -2 -16 -19 -20 -15 -2 -28 1 -30 7 -3 7 -17 11 -34 8 l-30 -4 0 -74 0
-74 2005 0 2005 0 5 23 c13 59 23 219 15 249 -26 94 -51 307 -60 493 -1 35
-32 189 -40 205 -5 9 -13 47 -19 85 -24 153 -46 230 -75 268 -16 20 -41 63
-57 95 -16 31 -41 75 -54 97 -14 22 -45 103 -70 181 -25 77 -52 149 -59 160
-25 37 -26 64 -1 80 20 13 23 23 23 70 0 30 -6 58 -12 62 -6 4 -67 9 -136 12
l-125 5 1 68 c1 80 9 90 73 83 62 -6 88 7 99 46 12 43 6 51 -29 43 -23 -5 -29
-3 -29 10 0 13 6 16 24 11 28 -7 40 2 25 21 -7 8 -34 13 -74 13 -62 0 -63 1
-74 31 -6 18 -11 38 -11 46 0 30 -28 44 -72 38 -73 -9 -178 -14 -193 -8 -22 8
-18 23 5 23 11 0 19 5 18 12 -2 8 13 13 42 14 127 7 181 17 196 38 13 19 13
21 -3 25 -10 2 -21 7 -24 13 -3 5 -18 4 -35 -3 -16 -7 -40 -13 -54 -14 -14 -1
-40 -6 -58 -10 -28 -7 -32 -5 -26 10 6 15 3 17 -19 11 -23 -5 -27 -3 -27 14 0
15 7 20 24 20 14 0 28 5 31 10 3 6 14 10 25 10 10 0 21 7 24 16 5 13 16 15 51
12 29 -4 51 -1 62 8 21 16 93 19 93 4 0 -5 -7 -10 -15 -10 -8 0 -15 -9 -15
-20 0 -15 7 -20 28 -21 15 -1 56 -3 91 -5 89 -4 138 28 94 62 -23 17 -34 17
-31 2 3 -13 -39 -14 -51 -2 -10 10 24 24 58 24 25 0 32 4 28 15 -4 8 -2 17 3
20 6 4 10 15 10 25 0 19 8 23 67 35 27 5 37 2 58 -21 21 -22 25 -37 25 -86 0
-54 2 -59 27 -69 44 -17 66 -8 74 30 6 28 2 41 -24 77 -22 31 -38 44 -56 45
-24 2 -24 2 -3 6 33 6 27 21 -10 25 l-33 4 29 12 c24 11 27 16 22 40 -4 15 -9
44 -13 65 -5 34 -8 37 -39 37 -18 0 -36 5 -39 10 -4 6 9 10 30 10 27 0 36 4
32 13 -3 8 8 26 24 41 17 16 29 38 29 52 0 36 27 72 60 79 16 3 34 13 41 21
16 19 30 6 67 -59 57 -100 169 -179 276 -193 44 -6 47 -8 31 -20 -10 -7 -23
-24 -29 -36 -16 -31 -56 -37 -56 -8 0 12 -4 18 -11 15 -5 -4 -9 -14 -7 -23 2
-10 -6 -22 -17 -27 -11 -6 -27 -26 -36 -45 -18 -38 -38 -60 -118 -130 -28 -25
-51 -50 -51 -57 0 -7 -9 -17 -20 -23 -17 -9 -20 -21 -20 -88 0 -108 -11 -126
-82 -132 -69 -6 -98 -29 -98 -77 0 -55 29 -74 103 -70 51 3 61 7 59 21 -6 32
27 27 77 -11 27 -21 50 -45 50 -54 1 -8 8 -24 16 -35 24 -31 19 -193 -11 -403
-6 -42 -5 -43 17 -36 12 4 31 17 40 29 10 11 21 17 26 13 4 -5 -7 -22 -25 -38
-17 -16 -32 -33 -32 -39 0 -5 -14 -25 -30 -43 -17 -19 -30 -40 -30 -47 0 -6
-9 -24 -19 -39 -11 -15 -23 -40 -27 -57 -4 -16 -13 -37 -21 -46 -14 -15 -13
-19 1 -34 10 -9 15 -23 12 -30 -7 -18 5 -18 54 2 31 12 63 15 133 12 103 -5
166 -27 207 -72 14 -16 33 -36 42 -46 31 -35 110 -211 105 -236 -2 -13 0 -21
4 -18 5 3 9 -5 9 -16 0 -23 14 -45 93 -152 35 -46 69 -79 111 -104 83 -51 156
-114 156 -134 0 -9 5 -21 11 -27 15 -15 7 -69 -26 -178 -52 -171 -52 -174 -20
-241 16 -32 36 -86 45 -119 l16 -60 757 -3 757 -2 0 2400 0 2400 -1390 0
c-925 -1 -1389 -4 -1385 -11 4 -5 15 -7 26 -4 12 4 21 1 25 -9 4 -9 12 -15 18
-14 12 3 16 -3 16 -22 0 -17 -38 -11 -43 8 -4 16 -5 15 -12 -2 -6 -13 -3 -23
9 -31 15 -11 14 -13 -11 -20 -24 -6 -26 -8 -10 -16 10 -6 28 -10 40 -9 36 3
40 1 27 -15 -7 -8 -21 -15 -31 -15 -10 0 -21 -5 -25 -12 -5 -8 -2 -9 9 -5 10
3 17 2 17 -3 0 -6 -7 -10 -16 -10 -8 0 -12 -4 -9 -10 3 -5 17 -10 31 -10 13 0
24 5 24 10 0 6 -5 10 -11 10 -5 0 -7 5 -4 10 3 6 19 10 36 10 16 0 29 -4 29
-10 0 -5 -7 -10 -15 -10 -18 0 -20 -16 -2 -23 6 -3 -33 -5 -88 -4 -88 2 -100
0 -97 -15 1 -9 -5 -19 -15 -21 -21 -5 45 -10 167 -11 47 -1 95 -5 107 -9 13
-5 31 -3 44 3 15 9 24 9 32 1 8 -8 5 -11 -12 -11 -12 0 -19 -4 -16 -10 3 -5
13 -10 21 -10 15 0 50 -28 43 -35 -2 -2 -31 -6 -63 -9 -54 -6 -58 -5 -45 10
12 14 11 16 -6 12 -11 -2 -19 -10 -17 -16 2 -13 -69 -17 -82 -4 -11 10 -104
12 -416 11 -211 -1 -321 3 -351 11 -19 6 -54 2 -106 -11 -94 -23 -97 -23 -90
-5 4 10 -4 15 -28 18 -20 2 -31 0 -28 -6 4 -5 -4 -6 -18 -2 -58 16 -79 18 -79
7 0 -7 -25 -9 -82 -5 -78 5 -119 14 -67 14 13 0 31 5 39 10 11 8 8 9 -11 4
-15 -3 -30 -1 -33 4 -8 13 56 24 88 16 19 -4 26 -2 26 9 0 8 6 17 13 19 17 7
38 -2 31 -13 -3 -5 9 -9 25 -9 17 0 31 -4 31 -10 0 -5 20 -10 45 -10 25 0 45
5 45 10 0 6 -11 10 -25 10 -14 0 -25 4 -25 9 0 5 -11 12 -25 15 -15 4 -23 11
-19 17 4 7 0 9 -12 6 -11 -4 -30 0 -44 8 -24 14 -24 14 22 13 30 -1 49 -6 52
-15 4 -10 14 -12 28 -8 19 5 20 4 8 -5 -12 -9 -6 -10 25 -5 22 4 47 13 56 21
8 8 33 14 55 15 28 0 34 2 20 8 -18 7 -18 8 -2 14 28 11 39 8 33 -7 -5 -12 -1
-13 24 -4 16 5 29 14 29 20 0 5 4 6 10 3 6 -3 7 1 4 9 -8 20 -13 20 -35 0 -17
-15 -20 -15 -45 1 -24 15 -28 16 -35 2 -9 -16 -49 -12 -49 4 0 5 -9 9 -19 9
-11 0 -22 4 -26 9 -8 14 33 40 55 34 10 -3 21 0 24 6 13 20 38 13 31 -9 -5
-17 -2 -19 22 -15 74 11 172 14 178 5 3 -5 23 -10 43 -10 28 0 33 -3 22 -10
-13 -9 -13 -10 0 -11 75 -6 95 -10 98 -19 5 -14 42 -13 42 1 0 8 4 8 14 0 11
-9 20 -9 35 -2 27 15 30 14 24 -9 -4 -16 0 -20 23 -22 16 -1 49 -3 74 -4 25
-1 52 -4 60 -5 8 -1 38 -1 65 1 l50 3 -55 7 c-30 5 -88 8 -127 9 -58 1 -73 4
-73 16 0 8 5 15 11 15 8 0 9 4 0 13 -13 17 -5 27 22 27 16 0 18 -5 12 -27 l-6
-28 28 29 c19 19 24 30 16 33 -16 6 -17 33 -1 33 6 0 20 7 30 17 24 21 36 9
15 -15 -27 -29 -21 -43 11 -26 15 7 33 14 40 14 7 0 10 5 7 10 -9 15 11 12 27
-4 16 -15 63 -3 53 14 -4 6 -10 8 -14 6 -4 -3 -13 -1 -21 5 -10 6 -11 9 -2 9
6 0 12 5 12 10 0 6 -31 10 -74 10 -63 0 -75 -3 -79 -17 -4 -16 -5 -16 -6 -1
-1 12 -15 18 -53 23 -63 9 -336 10 -345 2 -3 -4 6 -11 19 -18 19 -8 31 -8 48
1 16 9 25 9 33 1 6 -6 22 -11 36 -12 26 -1 25 -1 -5 -14 -17 -8 -36 -21 -43
-29 -17 -21 -45 -21 -37 -1 4 11 -2 15 -24 15 -18 0 -30 5 -30 13 0 8 -10 23
-23 35 l-23 22 -816 0 c-449 0 -818 -3 -820 -8z m2978 -2265 c4 -4 -1 -7 -11
-7 -14 0 -16 -3 -7 -12 8 -8 15 -8 25 0 15 12 27 6 27 -12 0 -7 -12 -11 -26
-11 -15 1 -45 -5 -68 -12 -30 -11 -46 -12 -58 -4 -12 7 -26 8 -44 1 -15 -6
-54 -7 -90 -4 -61 6 -79 16 -51 27 9 4 9 8 -2 15 -9 7 -10 11 -2 17 7 4 17 3
24 -2 16 -11 162 -7 207 5 38 10 65 10 76 -1z m-1023 -335 c-18 -5 -16 -22 2
-22 8 0 15 -5 15 -11 0 -5 -4 -8 -8 -5 -5 3 -16 -4 -25 -14 -12 -14 -24 -18
-46 -14 -16 4 -31 1 -35 -5 -4 -6 -6 -11 -4 -11 2 0 21 -7 43 -15 l40 -15 -53
2 c-45 3 -52 0 -49 -13 3 -12 -1 -15 -14 -12 -11 3 -19 0 -19 -6 0 -6 -9 -11
-20 -11 -11 0 -20 -4 -20 -9 0 -5 20 -8 45 -7 33 3 45 0 45 -10 0 -10 -14 -14
-45 -14 -64 0 -175 -22 -175 -35 0 -6 -17 -11 -37 -11 -21 0 -46 -4 -55 -8
-10 -5 -18 -4 -18 1 0 11 75 55 82 48 3 -3 11 1 18 10 15 18 40 20 40 3 0 -6
8 -1 19 10 10 12 30 22 45 22 15 0 29 7 32 15 4 8 16 15 28 16 16 0 13 3 -12
12 -26 10 -30 15 -20 25 6 6 25 12 40 12 15 0 28 4 28 9 0 15 -23 19 -44 9
-12 -7 -22 -6 -30 2 -15 15 21 42 46 34 10 -3 18 0 18 6 0 6 6 10 13 7 6 -2
20 0 31 5 12 7 22 6 29 -1 6 -6 19 -11 29 -11 15 0 17 4 8 19 -13 25 8 33 30
12 12 -12 12 -17 3 -19z m-1796 -147 c27 -1 72 2 101 7 52 9 112 3 112 -11 0
-3 -15 -13 -32 -21 -18 -7 -37 -15 -42 -18 -4 -2 -5 5 -1 17 7 24 -13 29 -34
9 -13 -14 -15 -15 -58 -17 l-28 -2 35 -18 c19 -10 39 -14 45 -9 13 11 83 10
87 -2 2 -6 8 -6 18 0 13 9 13 11 0 20 -12 8 -8 10 15 11 17 1 37 1 46 0 9 -1
19 6 23 15 6 16 8 16 20 -2 8 -10 12 -25 9 -34 -4 -13 -3 -13 5 0 6 8 8 18 6
22 -3 4 2 5 10 2 21 -8 20 -17 -1 -36 -24 -20 -93 -33 -93 -17 0 9 -3 9 -14 0
-8 -7 -12 -21 -9 -31 3 -11 0 -20 -6 -20 -6 0 -11 6 -11 14 0 16 -48 28 -56
14 -9 -15 -76 -6 -104 14 -20 14 -32 16 -65 8 -59 -14 -95 -12 -95 4 0 18 -17
29 -31 21 -7 -5 -4 -14 7 -26 16 -18 16 -19 -4 -19 -11 0 -22 7 -24 17 -3 14
-28 23 -63 23 -41 0 -113 -8 -126 -14 -14 -6 -59 22 -59 37 0 3 35 3 78 1 42
-3 84 -5 92 -4 13 0 107 6 169 10 17 2 20 5 12 13 -6 6 -11 20 -11 30 0 16 3
17 15 7 8 -7 36 -13 62 -15z m-511 -11 c-4 -9 -2 -22 4 -29 8 -9 4 -11 -15 -7
-25 4 -36 -12 -12 -21 6 -3 -12 -8 -41 -12 -46 -7 -53 -10 -50 -29 2 -17 9
-20 33 -18 16 2 33 9 37 15 5 8 8 6 8 -6 0 -15 7 -18 38 -17 56 3 62 1 55 -15
-3 -9 -8 -13 -11 -11 -3 3 -10 1 -17 -4 -6 -5 -45 -12 -86 -16 -92 -7 -115
-15 -74 -24 29 -7 29 -8 -10 -10 -22 -1 -44 -2 -49 -1 -5 1 -13 -4 -17 -11 -7
-10 -9 -9 -9 5 0 11 8 17 21 17 18 0 19 3 9 14 -6 8 -18 12 -26 9 -8 -3 -14 1
-14 10 0 9 12 18 29 22 38 8 63 35 33 35 -11 0 -22 -6 -25 -13 -3 -9 -16 -12
-36 -9 -36 5 -40 18 -8 28 31 11 33 11 72 13 49 2 43 17 -12 31 -39 9 -45 13
-31 21 20 11 63 3 77 -15 12 -14 84 -9 75 6 -4 5 -15 8 -25 5 -12 -3 -19 0
-19 8 0 7 -6 16 -12 18 -7 3 -3 6 10 6 13 1 20 -3 17 -9 -3 -5 1 -10 10 -10 9
0 14 4 10 10 -5 7 17 17 64 29 2 1 0 -6 -3 -15z m-657 -923 c2 -1 -2 -8 -9
-16 -7 -8 -9 -15 -4 -16 5 0 0 -4 -11 -9 -19 -9 -19 -9 2 -16 13 -3 20 -10 17
-15 -7 -13 14 -11 66 5 l45 15 -42 0 c-37 1 -43 4 -43 22 0 17 4 19 23 12 12
-4 43 -8 69 -7 37 1 47 -3 51 -18 6 -20 -13 -24 -30 -7 -7 7 -13 8 -17 0 -8
-12 37 -26 59 -17 8 3 15 1 15 -5 0 -6 10 -9 22 -7 11 2 23 -3 25 -9 4 -10 -7
-11 -41 -7 -29 4 -51 2 -60 -5 -10 -8 -21 -8 -41 -1 -14 5 -47 8 -71 6 -27 -3
-59 1 -82 11 -32 13 -35 16 -19 28 20 14 12 25 -20 25 -25 0 -26 1 -18 23 4
10 20 13 58 11 29 -1 54 -3 56 -3z m570 -504 c16 -21 -20 -49 -66 -52 -20 -1
-39 -7 -41 -14 -2 -6 -13 -11 -24 -11 -11 0 -18 -5 -15 -12 2 -7 12 -12 21
-12 9 1 16 -2 16 -7 0 -15 -29 -22 -43 -11 -7 6 -50 10 -97 9 -65 0 -84 3 -82
13 2 8 -4 11 -16 8 -10 -3 -29 0 -41 7 -19 10 -20 13 -8 24 9 6 28 14 44 17
15 2 34 7 41 9 7 2 22 1 35 -4 12 -4 58 -4 102 0 44 5 99 9 123 10 23 1 42 5
42 10 0 5 -4 9 -10 9 -5 0 -10 5 -10 10 0 14 16 12 29 -3z"/>
<path d="M10 4279 c11 -8 12 -12 2 -16 -15 -6 -16 -25 -1 -40 8 -8 18 -7 37 3
15 8 41 14 57 13 29 0 29 -1 7 -10 -13 -5 -28 -7 -32 -4 -5 3 -15 -4 -24 -16
-10 -15 -21 -20 -35 -16 -17 4 -21 0 -21 -19 0 -22 2 -24 22 -13 13 6 30 18
38 25 13 11 20 10 45 -6 17 -11 26 -20 21 -20 -6 0 -1 -7 10 -16 18 -15 18
-15 -8 -10 -15 4 -30 2 -33 -4 -9 -14 -55 -12 -55 2 0 25 -33 -21 -36 -51 -3
-21 1 -31 14 -34 16 -4 16 -5 0 -6 -31 -2 -22 -39 12 -46 39 -9 39 -29 0 -23
l-30 5 0 -94 c0 -106 -6 -101 95 -80 64 13 218 8 179 -6 -12 -4 -26 -7 -30 -6
-5 1 -29 -1 -54 -5 -25 -3 -58 -8 -75 -9 -16 -2 -41 -9 -54 -16 -17 -9 -26
-10 -34 -2 -19 19 -27 12 -27 -24 0 -34 12 -46 26 -24 5 8 8 8 14 0 5 -9 13
-8 32 1 14 8 46 13 71 13 26 0 47 3 47 8 0 4 5 7 11 7 5 0 7 -4 4 -10 -3 -5 1
-10 9 -10 9 0 13 6 10 15 -4 9 3 17 23 22 40 11 136 8 140 -4 2 -5 17 -8 33
-5 16 2 27 8 24 13 -10 17 15 9 33 -10 12 -13 39 -22 82 -27 57 -6 62 -8 46
-20 -28 -20 -17 -23 60 -15 39 5 76 6 83 3 19 -7 9 -26 -19 -33 -13 -4 -18 -7
-11 -8 24 -2 1 -21 -25 -21 -18 0 -24 4 -20 14 8 19 -13 26 -38 13 -11 -6 -26
-13 -34 -16 -25 -12 -11 -26 24 -25 22 1 36 -4 40 -14 7 -19 -4 -30 -14 -14
-6 10 -15 9 -40 -4 -17 -9 -37 -17 -44 -18 -7 -1 -18 -6 -26 -11 -10 -5 -16
-4 -19 3 -2 7 -11 12 -19 12 -12 0 -13 -3 -4 -13 6 -8 8 -16 5 -19 -12 -13 59
-14 83 -1 33 17 38 16 23 -2 -11 -13 -7 -14 31 -11 24 2 36 2 25 -1 -10 -3
-21 -13 -23 -24 -3 -10 -9 -19 -14 -19 -4 0 -20 -5 -34 -10 -21 -8 -25 -13
-16 -24 6 -7 8 -16 4 -19 -3 -4 1 -7 10 -7 8 0 18 6 21 13 5 9 7 9 12 0 4 -10
13 -9 36 3 16 8 32 14 34 11 10 -10 -44 -35 -90 -41 -42 -7 -48 -5 -43 8 5 13
-2 16 -36 18 -68 3 -99 0 -106 -10 -3 -5 -37 -10 -75 -11 -37 -1 -72 -4 -77
-7 -36 -22 42 -38 113 -23 27 6 52 8 56 4 13 -13 -25 -25 -80 -25 -31 0 -60
-4 -63 -10 -8 -14 -55 -13 -55 1 0 8 -14 9 -43 5 -45 -7 -77 -1 -77 15 0 5 7
9 16 9 10 0 14 6 11 14 -3 8 1 20 9 26 11 10 14 9 14 -4 0 -22 23 -20 45 4 18
20 17 20 -22 20 -22 0 -74 -3 -116 -6 -75 -7 -77 -8 -77 -34 0 -21 4 -26 23
-25 12 1 23 9 25 18 3 13 13 17 40 16 23 -1 29 -3 15 -6 -23 -4 -33 -33 -12
-33 5 0 7 -5 4 -11 -4 -6 -10 -8 -13 -5 -3 3 -11 1 -18 -5 -8 -7 -14 -7 -19 1
-3 5 -15 10 -26 10 -16 0 -19 -7 -19 -40 0 -32 4 -40 18 -40 10 0 27 -7 38
-15 18 -14 18 -14 -7 -15 -14 0 -30 5 -37 12 -9 9 -12 -31 -12 -180 l0 -192
23 -1 22 0 -23 -9 -22 -9 0 -242 c1 -183 4 -239 12 -231 15 15 48 16 48 2 0
-5 7 -10 15 -10 8 0 15 5 15 10 0 11 59 11 75 0 22 -15 67 -20 81 -9 10 8 14
8 14 0 0 -15 27 -14 32 1 3 9 16 8 53 -1 33 -8 51 -9 58 -2 13 13 50 15 61 4
10 -10 105 -10 99 -1 -2 5 7 8 22 8 22 0 24 -3 15 -19 -7 -13 -16 -17 -31 -14
-14 4 -20 2 -16 -4 8 -14 42 -22 53 -14 5 3 14 15 20 26 12 21 29 23 107 11
31 -5 47 -4 47 3 0 6 9 11 20 11 11 0 19 -3 19 -7 -3 -19 2 -33 12 -33 5 0 7
5 4 10 -3 6 3 10 14 10 12 0 21 6 21 13 0 7 3 8 8 2 4 -5 45 -11 91 -13 47 -2
89 -6 94 -9 5 -3 12 -1 16 5 7 12 32 13 386 13 206 -1 266 -4 287 -15 23 -12
29 -12 39 0 6 7 16 11 22 7 6 -4 33 -5 60 -4 33 2 47 -1 42 -8 -3 -6 -2 -11 3
-11 6 0 12 7 16 15 4 10 15 14 38 11 18 -3 39 -5 46 -5 7 -1 10 -5 7 -11 -3
-5 1 -10 9 -10 9 0 16 5 16 10 0 6 31 10 74 10 41 0 78 -4 81 -10 3 -5 11 -10
16 -10 6 0 8 4 5 9 -9 14 14 17 64 10 25 -3 37 -7 28 -7 -19 -2 -24 -17 -9
-26 5 -3 14 1 21 9 10 12 24 14 54 10 63 -10 91 19 87 90 -1 28 -60 43 -121
33 -25 -4 -109 -6 -187 -4 -78 2 -144 2 -147 -1 -3 -4 -40 -5 -81 -4 -56 2
-76 -1 -80 -11 -6 -15 -75 -12 -75 3 0 5 -8 9 -17 10 -10 1 2 5 27 10 25 5 47
14 48 19 3 7 25 9 60 5 51 -6 58 -4 70 14 12 20 11 21 -23 17 -37 -5 -43 2
-22 23 10 10 9 11 -5 6 -9 -4 -19 -13 -22 -21 -4 -9 -11 -12 -18 -7 -24 14
-161 3 -182 -15 -18 -16 -19 -16 -13 0 3 10 2 20 -3 23 -4 3 -10 0 -12 -7 -3
-9 -9 -8 -22 5 -19 18 -61 23 -71 7 -4 -6 -13 -5 -25 2 -11 7 -23 8 -27 4 -4
-5 -2 -11 6 -14 10 -3 7 -8 -10 -18 -22 -12 -21 -13 29 -14 28 0 52 -5 52 -10
0 -6 -12 -10 -27 -9 -16 1 -32 0 -38 -1 -5 -2 -27 0 -49 5 -26 5 -40 4 -45 -4
-5 -8 -16 -7 -39 5 -43 21 -40 34 6 34 31 1 34 2 19 11 -11 6 -32 9 -47 7 -16
-2 -27 -1 -25 3 3 4 -2 9 -10 13 -9 3 -15 0 -15 -9 0 -18 -16 -20 -26 -3 -5 8
-11 6 -20 -6 -8 -12 -26 -18 -48 -18 -38 0 -49 -13 -18 -22 9 -2 36 -7 59 -11
22 -4 49 -15 59 -26 16 -18 16 -19 -5 -19 -12 0 -20 4 -17 9 6 10 -68 23 -124
21 -19 0 -118 2 -220 5 -102 3 -214 5 -250 4 -36 0 -74 0 -85 2 -11 1 -75 3
-143 3 -106 1 -122 3 -122 17 0 10 11 20 25 23 14 4 23 11 19 17 -3 6 3 13 14
16 11 3 23 12 27 20 4 13 3 14 -9 3 -9 -6 -21 -10 -28 -7 -7 2 -24 0 -38 -4
l-25 -9 22 19 c12 10 41 21 64 25 57 9 40 21 -32 21 -41 0 -59 -4 -59 -12 0
-8 -12 -12 -32 -12 -24 1 -27 3 -10 6 12 2 22 8 22 13 0 17 -51 40 -91 40 -32
0 -42 4 -46 20 -6 24 -12 25 -28 3 -11 -15 -15 -15 -29 -4 -9 7 -16 19 -16 25
0 14 120 49 141 41 11 -4 18 1 22 16 7 24 -3 43 -10 22 -7 -18 -23 -16 -23 3
0 8 -4 12 -10 9 -5 -3 -7 0 -4 8 3 10 -6 18 -28 26 -26 9 -30 14 -18 21 8 5
36 10 63 10 38 0 47 3 47 18 0 9 -12 23 -28 30 -45 22 -59 25 -38 8 15 -12 16
-16 5 -16 -9 0 -29 -16 -46 -35 -33 -37 -78 -49 -66 -18 5 13 2 15 -11 10 -10
-4 -29 -4 -43 -1 -25 7 -25 8 -8 20 11 8 29 14 41 14 16 0 22 6 22 25 0 15 -6
25 -14 25 -17 0 -18 17 -1 23 6 3 2 6 -10 6 -28 1 -31 21 -3 21 16 0 20 7 20
30 0 20 5 30 15 30 11 0 14 -7 9 -25 -4 -17 -2 -25 6 -25 10 0 10 -3 0 -15
-17 -20 -1 -19 31 3 14 9 24 23 21 31 -3 10 4 12 37 6 27 -4 41 -3 41 4 0 10
-14 15 -32 12 -5 0 -8 3 -8 8 0 9 82 23 90 15 3 -3 -3 -12 -13 -19 -16 -12
-17 -17 -6 -37 7 -13 12 -26 11 -30 -1 -5 5 -8 13 -8 8 0 15 4 15 9 0 5 23 7
50 4 32 -3 50 -1 50 6 0 6 21 12 48 13 l47 1 -42 4 c-46 4 -63 33 -20 33 20 1
20 2 4 11 -10 6 -24 8 -32 5 -7 -2 -31 3 -52 13 -21 10 -45 21 -53 24 -8 4 3
3 25 -1 22 -4 56 -6 75 -5 110 4 161 10 170 19 7 7 -1 9 -23 6 -18 -2 -48 1
-67 6 -31 9 -27 10 45 13 44 1 89 1 100 -1 61 -9 315 2 307 14 -3 5 6 6 20 3
14 -4 50 -2 79 3 37 7 56 7 63 0 8 -8 6 -9 -6 -5 -24 10 -23 -7 2 -23 16 -10
25 -9 52 8 40 24 69 25 125 4 49 -19 60 -48 16 -39 -17 3 -11 -1 15 -12 23 -9
42 -23 42 -30 0 -18 27 -16 34 3 9 22 8 24 -9 24 -8 0 -15 4 -15 9 0 5 9 7 19
4 11 -3 28 0 38 5 16 10 16 12 -9 21 -16 6 -28 15 -28 21 0 13 12 13 47 -2 15
-6 31 -12 35 -12 3 -1 10 -4 14 -8 4 -5 15 -8 25 -8 9 0 19 -7 23 -15 3 -8 12
-12 21 -9 11 5 15 0 13 -17 -3 -19 2 -23 29 -26 l33 -3 -21 21 -22 22 38 13
c47 16 73 40 33 30 -22 -5 -26 -3 -22 9 4 8 12 15 19 15 7 0 21 3 31 7 13 5
16 3 11 -10 -5 -12 -1 -17 13 -17 11 0 20 -4 20 -9 0 -6 12 -3 28 5 39 20 52
17 52 -11 0 -14 5 -25 10 -25 6 0 10 5 10 10 0 6 14 10 32 10 30 0 31 -1 12
-14 -24 -18 -16 -26 13 -15 20 7 21 11 11 46 -5 21 -14 42 -19 48 -5 5 -9 17
-9 26 0 9 -10 23 -21 31 -17 10 -22 25 -23 58 -1 39 -4 44 -31 54 -39 14 -42
51 -5 51 19 1 24 6 23 20 -1 11 -3 40 -4 63 l-2 44 -66 -7 c-103 -12 -211 -13
-211 -4 0 5 -7 9 -15 9 -8 0 -15 5 -15 11 0 7 15 9 43 6 40 -4 124 7 157 21 9
3 -4 8 -30 12 -25 3 -56 1 -70 -5 -34 -14 -110 -8 -110 10 0 10 -15 12 -62 9
-44 -2 -54 -1 -33 4 17 5 41 15 55 22 l25 14 -25 8 c-24 7 -24 7 3 3 15 -3 38
-8 52 -11 13 -4 33 -3 42 1 10 5 26 7 36 6 10 -1 17 4 17 13 0 9 6 16 14 16 8
0 16 5 18 11 2 6 21 12 41 14 21 1 39 4 42 6 2 3 -10 33 -28 68 -30 60 -32 61
-40 37 -10 -31 -28 -35 -20 -5 4 12 0 25 -8 30 -10 6 -8 10 10 17 22 8 22 9 6
25 -9 9 -26 17 -38 18 -19 0 -20 1 -4 7 16 7 15 11 -12 52 -16 25 -42 56 -56
70 -22 21 -29 22 -45 12 -23 -14 -27 0 -5 18 12 10 9 19 -22 60 -34 45 -38 48
-75 43 -58 -6 -89 -21 -95 -44 -4 -15 -11 -19 -26 -15 -10 2 -28 -1 -38 -7
-15 -9 -22 -9 -27 -1 -10 17 -110 12 -117 -5 -3 -8 -4 -16 -2 -18 3 -2 53 -5
113 -7 137 -5 134 -4 134 -14 0 -18 -182 -63 -270 -67 -49 -3 -50 -2 -15 4 32
6 36 9 20 15 -11 4 -32 13 -47 21 -20 10 -36 11 -63 4 -27 -8 -40 -7 -57 6
-25 17 -58 20 -58 5 0 -5 -18 -9 -40 -8 -22 1 -40 4 -40 8 0 4 -33 6 -72 4
-40 -2 -79 -4 -85 -4 -7 0 -13 -4 -13 -10 0 -5 6 -10 14 -10 20 0 16 -40 -4
-42 -76 -8 -100 -4 -100 14 0 13 -6 18 -17 16 -29 -6 -44 14 -26 35 14 15 14
17 1 17 -19 0 -52 -36 -44 -48 3 -5 -6 -14 -19 -20 -14 -7 -25 -8 -25 -3 0 5
7 11 15 15 23 8 18 32 -10 50 -29 19 -23 41 8 32 25 -6 65 13 48 24 -7 4 -45
-4 -84 -17 -45 -14 -83 -21 -100 -17 -15 3 -54 3 -87 -1 -51 -6 -59 -10 -63
-31 -4 -24 10 -32 29 -15 12 13 162 22 169 11 3 -4 -8 -15 -25 -23 -18 -10
-32 -12 -36 -6 -7 12 -34 -8 -34 -25 0 -11 -62 -46 -80 -46 -6 0 -10 8 -10 17
0 13 -3 14 -12 5 -17 -17 -25 -15 -31 7 -4 16 1 21 27 24 21 2 13 5 -24 7 -30
1 -48 4 -39 7 11 2 15 11 12 22 -3 13 2 20 17 24 30 8 15 27 -21 27 -16 0 -29
4 -29 9 0 15 18 23 25 12 5 -9 143 -6 153 4 8 8 -10 25 -27 25 -10 0 -21 9
-24 20 -3 11 -2 18 1 16 4 -2 13 2 19 10 8 8 9 15 3 19 -20 12 1 24 30 18 17
-3 30 -1 30 4 0 14 -47 33 -65 27 -8 -4 -15 -2 -15 4 0 12 62 24 84 16 9 -3
14 -10 11 -14 -3 -5 9 -2 25 7 17 8 29 17 26 20 -3 3 -74 7 -158 9 -106 2
-148 0 -138 -7z m998 -489 c37 0 34 -19 -5 -26 -21 -4 -46 -7 -55 -6 -10 0
-18 -3 -18 -8 0 -13 32 -17 60 -8 14 4 39 6 55 4 17 -2 39 -4 50 -5 l20 -2
-20 -15 c-14 -10 -31 -13 -53 -9 -23 4 -32 3 -27 -5 4 -7 -6 -9 -32 -5 -21 3
-57 9 -80 12 -24 3 -43 10 -43 14 0 5 -9 9 -20 9 -11 0 -20 -4 -20 -10 0 -5
-4 -10 -10 -10 -5 0 -10 9 -10 19 0 13 -8 21 -22 23 l-23 3 21 13 c12 6 52 14
90 16 37 3 72 10 78 16 6 6 15 5 26 -5 9 -8 26 -15 38 -15z m370 -268 c2 -6
-8 -14 -22 -18 -30 -7 -34 -20 -8 -27 11 -3 7 -5 -10 -6 -15 0 -34 -8 -42 -17
-9 -9 -16 -11 -16 -4 0 6 -4 9 -8 6 -4 -3 -51 -6 -103 -7 -51 -2 -100 -7 -107
-12 -18 -14 -28 1 -16 21 16 24 71 40 150 43 80 2 154 17 154 31 0 13 23 5 28
-10z m-138 -111 c0 -4 -5 -12 -12 -19 -9 -9 -1 -12 37 -12 26 0 45 -3 41 -7
-10 -10 -106 -12 -106 -2 0 15 -28 10 -34 -6 -4 -11 -14 -14 -33 -10 -16 3
-90 6 -165 6 -76 1 -135 6 -132 10 3 5 22 9 43 9 21 0 56 6 77 14 22 7 77 16
123 20 47 3 86 7 87 9 6 6 74 -5 74 -12z m-735 -111 c0 -1 99 -3 220 -6 121
-2 243 -5 271 -5 28 -1 55 0 60 3 15 9 225 7 219 -1 -6 -10 -65 -24 -115 -27
-19 -1 -75 -7 -125 -13 -49 -6 -98 -8 -108 -5 -13 4 -20 0 -24 -15 -5 -21 -43
-30 -43 -11 0 6 -13 10 -28 10 -16 0 -51 7 -79 15 -62 18 -250 9 -246 -13 2
-9 -15 -10 -70 -6 -39 3 -86 5 -103 5 -21 -1 -34 4 -38 15 -4 11 -14 15 -32
11 -15 -3 -23 0 -21 7 6 19 55 18 112 -3 63 -24 75 -25 75 -11 0 6 -7 10 -16
10 -9 0 -12 5 -8 12 4 6 3 8 -3 5 -13 -8 -123 13 -123 23 0 3 51 5 113 4 61
-1 112 -3 112 -4z"/>
<path d="M1966 3179 c11 -19 22 -36 25 -39 14 -11 33 -56 31 -71 -2 -9 6 -19
16 -22 15 -3 22 -17 27 -56 4 -29 5 -55 2 -58 -10 -10 21 -33 45 -34 17 -1 18
-3 6 -6 -21 -5 -24 -19 -5 -25 23 -9 87 4 87 17 0 21 -28 81 -52 111 -13 16
-39 51 -57 78 -33 47 -96 111 -128 130 -12 6 -11 1 3 -25z"/>
<path d="M1710 3015 c0 -8 -4 -15 -10 -15 -5 0 -10 -11 -10 -25 0 -19 5 -25
22 -25 25 0 14 -15 -17 -24 -11 -3 20 -4 68 -2 54 2 94 9 100 16 9 10 7 12
-10 7 -13 -3 -25 -2 -28 3 -3 4 12 11 32 15 33 6 35 8 19 17 -18 10 -18 11 3
22 17 10 8 11 -54 9 -41 -1 -77 2 -80 7 -10 16 -35 12 -35 -5z"/>
<path d="M1960 2910 c54 -8 52 -10 -20 -16 -30 -3 -72 -11 -93 -19 -20 -8 -48
-15 -61 -15 -14 0 -31 -3 -40 -6 -36 -14 -1 -19 103 -17 65 2 112 -1 116 -7 6
-10 -16 -12 -140 -15 -33 -1 -91 -5 -129 -9 -68 -8 -68 -8 -57 13 13 23 19 22
-84 21 -65 -1 -104 -20 -106 -52 0 -7 -5 -1 -11 14 -7 22 -13 26 -26 19 -19
-9 -59 -8 -111 4 -24 5 -31 4 -27 -4 5 -7 -9 -11 -41 -12 -47 -2 -47 -2 17
-11 36 -5 82 -7 103 -4 42 5 43 4 22 -18 -14 -14 -14 -17 2 -35 15 -18 25 -20
81 -15 49 5 72 3 103 -11 30 -14 42 -16 51 -7 9 9 8 12 -6 12 -10 0 -14 5 -10
11 10 17 -15 28 -45 20 -14 -4 -55 -9 -90 -10 -56 -2 -63 0 -57 14 3 9 6 22 6
28 0 8 4 7 12 -1 7 -7 29 -12 51 -12 36 0 37 1 22 16 -24 24 -7 32 50 24 36
-5 45 -9 32 -14 -9 -5 -29 -6 -45 -2 -15 3 -21 3 -14 0 6 -3 9 -10 6 -16 -4
-7 5 -8 27 -3 43 10 43 10 111 -10 56 -17 128 -14 99 4 -7 5 -22 6 -32 4 -10
-3 -19 -1 -19 5 0 5 12 12 28 15 15 3 38 9 51 13 15 4 22 3 18 -2 -6 -11 60
-11 211 1 75 6 102 5 102 -3 0 -7 7 -12 15 -12 9 0 12 6 9 15 -4 8 -1 15 4 15
17 0 24 -19 18 -46 -5 -17 -13 -24 -30 -24 -14 0 -26 -5 -28 -11 -2 -5 -35
-14 -73 -18 -39 -5 -62 -9 -52 -10 25 -2 21 -16 -8 -29 -14 -6 -25 -16 -25
-22 0 -5 -9 -10 -19 -10 -11 0 -21 -5 -23 -11 -2 -7 -31 -12 -69 -14 -36 -1
-70 -4 -76 -8 -6 -4 -49 -7 -97 -8 -47 -1 -86 -5 -86 -9 0 -14 29 -20 53 -11
26 10 77 3 77 -10 0 -13 21 -11 53 5 24 13 27 13 27 0 0 -13 3 -13 29 0 19 10
31 12 38 5 7 -7 17 -8 29 -1 22 11 77 5 82 -9 2 -5 14 -9 27 -9 13 0 25 -6 27
-12 4 -10 10 -10 32 0 15 6 53 12 84 12 31 0 80 7 107 16 32 9 66 13 93 9 l43
-6 -15 29 c-23 45 -39 54 -62 37 -18 -14 -18 -14 6 -15 32 -1 10 -14 -37 -23
-38 -7 -43 4 -10 22 16 9 17 10 2 5 -11 -4 -31 -9 -43 -12 -22 -4 -23 -3 -11
17 8 11 19 21 26 21 7 0 13 10 13 22 0 17 -3 19 -12 10 -17 -17 -31 -15 -25 2
3 8 2 16 -3 18 -5 2 -11 14 -12 28 -3 23 0 25 30 22 l32 -3 -20 39 c-20 37
-23 40 -58 35 -95 -11 -171 -13 -177 -3 -3 6 4 10 17 10 32 1 62 25 54 45 -4
12 -13 15 -35 10 -17 -3 -32 -2 -36 4 -3 6 -25 10 -48 9 l-42 -1 45 -7z"/>
<path d="M3950 2904 c-7 -8 -23 -14 -34 -13 -44 3 -51 -1 -50 -28 0 -16 6 -41
13 -57 8 -21 9 -32 0 -42 -22 -26 3 -14 67 33 69 50 81 71 64 103 -13 24 -42
26 -60 4z"/>
<path d="M850 2832 c0 -13 17 -33 26 -31 5 1 16 0 24 -4 8 -3 43 -7 78 -9 76
-5 95 -19 59 -43 -15 -9 -31 -14 -37 -10 -17 10 -120 15 -120 5 0 -5 -8 -10
-17 -13 -16 -3 -16 -5 2 -12 11 -5 26 -17 33 -27 7 -10 23 -18 35 -18 21 1 22
1 3 15 -24 18 -18 26 13 18 13 -3 20 -11 17 -19 -3 -8 1 -14 9 -14 9 0 15 10
15 25 0 14 5 25 10 25 6 0 10 -9 10 -20 0 -11 7 -23 15 -26 21 -9 67 5 60 17
-8 12 13 39 40 49 15 7 16 9 4 9 -9 1 -20 12 -23 26 -4 16 -11 22 -21 19 -8
-4 -15 -1 -15 5 0 11 -54 43 -61 37 -2 -2 -22 -7 -43 -10 -22 -4 -42 -9 -44
-11 -3 -3 -12 1 -20 7 -16 14 -52 21 -52 10z"/>
<path d="M3917 2183 c-4 -3 -7 -26 -7 -50 l0 -43 -47 0 c-27 0 -59 -6 -73 -13
-22 -12 -25 -18 -22 -64 4 -66 -13 -85 -71 -77 l-42 6 22 -24 c22 -23 63 -124
63 -157 1 -9 18 -35 39 -59 l38 -43 35 20 c38 23 53 52 90 169 18 61 20 78 11
103 -10 26 -9 42 8 94 l21 62 -26 42 c-28 44 -29 45 -39 34z"/>
</g>
</svg>
